<?xml version="1.0" encoding="utf-8"?>
<!-- Generator: Adobe Illustrator 19.2.0, SVG Export Plug-In . SVG Version: 6.00 Build 0)  -->
<svg version="1.1" id="Layer_1" xmlns="http://www.w3.org/2000/svg" xmlns:xlink="http://www.w3.org/1999/xlink" x="0px" y="0px"
	 viewBox="0 0 334 45.2" enable-background="new 0 0 334 45.2" xml:space="preserve">
<path fill="#010101" d="M266.2,24.1c0,5.1-4.2,9.3-9.3,9.3h-8V10.8h7.9c2.5,0,4.9,1,6.7,2.8c1.8,1.8,2.7,4.2,2.7,6.7L266.2,24.1z
	 M256.8,7.3h-11.4V37h11.5c7,0,12.8-5.8,12.8-12.8l0-3.8c0-3.5-1.3-6.8-3.7-9.2C263.5,8.6,260.2,7.3,256.8,7.3"/>
<polygon fill="#010101" points="223.8,7.2 220.3,7.2 220.3,37 238.7,37 238.7,33.5 223.8,33.5 "/>
<path fill="#010101" d="M100.2,24.8c0,4.8-3.9,8.8-8.7,8.8c-4.8,0-8.7-3.9-8.7-8.8v-5.4c0-4.8,3.9-8.8,8.7-8.8
	c4.8,0,8.7,3.9,8.7,8.8V24.8z M91.5,7.1c-6.7,0-12.2,5.5-12.2,12.3v5.4c0,6.8,5.5,12.3,12.2,12.3c6.7,0,12.2-5.5,12.2-12.3v-5.4
	C103.7,12.6,98.2,7.1,91.5,7.1"/>
<polygon fill="#010101" points="176.7,18.1 159.3,18.1 159.3,7.2 155.8,7.2 155.8,37.1 159.3,37.1 159.3,21.6 176.7,21.6 
	176.7,37.1 180.2,37.1 180.2,7.2 176.7,7.2 "/>
<polygon fill="#010101" points="187.9,37 212.5,37 212.5,33.5 191.4,33.5 191.4,21.6 205.5,21.6 205.5,18.1 191.4,18.1 191.4,10.7 
	212.5,10.7 212.5,7.1 187.9,7.1 "/>
<polygon fill="#010101" points="277,37 301.6,37 301.6,33.5 280.5,33.5 280.5,21.6 294.6,21.6 294.6,18.1 280.5,18.1 280.5,10.7 
	301.6,10.7 301.6,7.1 277,7.1 "/>
<polygon fill="#010101" points="132.1,31.1 114.8,7.2 111,7.2 111,37 114.5,37 114.5,12.9 132.1,37.1 132.1,37.1 135.6,37.1 
	135.6,7.2 132.1,7.2 "/>
<polygon fill="#010101" points="63.4,31.6 54.9,7.2 51.2,7.2 61.6,37.1 65.2,37.1 75.6,7.2 71.9,7.2 "/>
<rect x="7.6" y="7.6" fill="#010101" width="21.9" height="4.6"/>
<path fill="#010101" d="M18.5,37.5c6,0,11-4.8,11-10.6V16H7.6v10.9C7.6,32.7,12.5,37.5,18.5,37.5"/>
<path fill="#010101" d="M3.9,3.9h29.3v23c0,7.9-6.6,14.4-14.7,14.4c-8.1,0-14.7-6.4-14.7-14.4V3.9z M0,26.9C0,37,8.3,45.2,18.5,45.2
	c10.2,0,18.5-8.2,18.5-18.3V0H0V26.9z"/>
<polygon fill="#010101" points="330.5,7.2 330.5,31.1 313.2,7.2 309.5,7.2 309.5,37 313,37 313,12.9 330.5,37.1 330.5,37.1 
	334,37.1 334,7.2 "/>
</svg>
